PathFileType	4	(X/Y/Z)	./resultDataOpenSim/trcMotMarkerGrf/sub06/qtm-04-03.trc
DataRate	CameraRate	NumFrames	NumMarkers	Units	OrigDataRate	OrigDataStartFrame	OrigNumFrames
250.000000	250.000000	8	24	m	250.000000	447	510
Frame#	Time	L.Toe.Tip			R.Toe.Tip			L.Ankle.Lat			R.Ankle.Lat			L.Ankle.Med			R.Ankle.Med			L.Heel			R.Heel			L.Knee.Lat			R.Knee.Lat			L.Knee.Med			R.Knee.Med			L.Thigh.Upper			R.Thigh.Upper			L.ASIS			R.ASIS			V.Sacral			L.Acromium			R.Acromium			C7			L.Elbow			R.Elbow			L.Wrist.Lat			R.Wrist.Lat
		X1	Y1	Z1	X2	Y2	Z2	X3	Y3	Z3	X4	Y4	Z4	X5	Y5	Z5	X6	Y6	Z6	X7	Y7	Z7	X8	Y8	Z8	X9	Y9	Z9	X10	Y10	Z10	X11	Y11	Z11	X12	Y12	Z12	X13	Y13	Z13	X14	Y14	Z14	X15	Y15	Z15	X16	Y16	Z16	X17	Y17	Z17	X18	Y18	Z18	X19	Y19	Z19	X20	Y20	Z20	X21	Y21	Z21	X22	Y22	Z22	X23	Y23	Z23	X24	Y24	Z24

447	1.784	1.7208291	0.034122816	-0.058124009	1.0802087	0.078551304	0.14234496	1.5971177	0.067241968	-0.083764889	1.0716709	0.21705643	0.16819882	1.5926507	0.078306493	0.003647105	1.1102359	0.2036049	0.08760868	1.5197112	0.039139897	-0.043708043	1.0466503	0.25890751	0.10311692	1.64938	0.43996862	-0.084381215	1.421011	0.3813024	0.19798954	1.624589	0.43154104	0.032818587	1.4186301	0.35864002	0.062956172	1.4833582	0.80287711	-0.1388011	1.4213557	0.74402013	0.19986179	1.5412336	0.83960068	-0.082773296	1.521318	0.80846398	0.16053604	1.3381964	0.89374285	0.039567773	1.4480479	1.2943463	-0.15686749	1.472705	1.3043665	0.20531821	1.3773077	1.3364489	0.027389102	1.3483827	0.99381865	-0.19606757	1.4510169	0.98187627	0.28415421	1.4405227	0.77520802	-0.25843744	1.6768457	0.88060241	0.24869102
448	1.788	1.7208056	0.034110399	-0.058244759	1.0953141	0.080674285	0.14255878	1.5971164	0.067111267	-0.083898081	1.0846221	0.21927611	0.16745555	1.5943224	0.078490051	0.0033919388	1.1231298	0.20600085	0.086951539	1.5197636	0.039018344	-0.043510801	1.058769	0.26050464	0.10240713	1.6516581	0.43950265	-0.084865172	1.433387	0.38261138	0.19836508	1.6270647	0.4309704	0.032336409	1.4309511	0.36046755	0.063165999	1.4893724	0.80419047	-0.13906952	1.4272093	0.74541057	0.19937638	1.5471059	0.84091601	-0.082964538	1.5272148	0.81053221	0.16034024	1.3435744	0.89537629	0.039026034	1.4543281	1.2961244	-0.15691447	1.4780148	1.3059715	0.20540254	1.3832693	1.3380651	0.027181816	1.3571777	0.99460265	-0.19697157	1.4544943	0.98341531	0.28293711	1.4514567	0.77696882	-0.25836976	1.678878	0.87844309	0.24941685
449	1.792	1.7207731	0.034106297	-0.058356732	1.1106676	0.082541492	0.14279796	1.5970858	0.067004705	-0.084019082	1.0977951	0.22111113	0.166714	1.5956286	0.078644749	0.003189716	1.1362659	0.20806116	0.086309779	1.5197555	0.039007064	-0.043438517	1.0708897	0.26174987	0.10172667	1.6538018	0.43905965	-0.085244968	1.4458032	0.38409222	0.19871387	1.6293034	0.43041821	0.031953553	1.4432913	0.36241103	0.063412838	1.4952861	0.80552396	-0.13925602	1.4340782	0.74676381	0.1987651	1.5529784	0.84227923	-0.083134832	1.5330141	0.812638	0.16020484	1.3492176	0.89696917	0.038510109	1.4605864	1.2979607	-0.15693512	1.4832389	1.3076036	0.20552709	1.3891776	1.3397128	0.027012292	1.3658365	0.99547952	-0.1977426	1.4581837	0.98496498	0.28173514	1.4624518	0.77884536	-0.25825728	1.6808271	0.87637722	0.25016052
450	1.796	1.7207392	0.034110537	-0.058454852	1.1262091	0.084176149	0.14305981	1.5970382	0.066939058	-0.084114175	1.1110831	0.22262018	0.1659493	1.5962694	0.078746194	0.003087082	1.1495988	0.20980904	0.085660966	1.5197174	0.039067081	-0.043408743	1.0831568	0.2626461	0.10084371	1.6558176	0.43864573	-0.0855151	1.458238	0.38574118	0.19903017	1.6313292	0.42992074	0.031680886	1.4556719	0.36445682	0.063639731	1.5010584	0.80686624	-0.13935813	1.4410468	0.74820827	0.19804524	1.5588673	0.84368466	-0.08329649	1.5387079	0.81476788	0.160132	1.3549879	0.89854296	0.038005031	1.4668243	1.2998605	-0.15692826	1.4884036	1.3092576	0.20568843	1.3950353	1.3413912	0.026874127	1.3743178	0.99645875	-0.19832592	1.4621043	0.98649676	0.28051166	1.4735108	0.78083421	-0.25808981	1.6826682	0.87439889	0.25092685
451	1.8	1.7207148	0.034121092	-0.058534007	1.1418774	0.08559756	0.14336898	1.5969977	0.066916807	-0.084184673	1.1244318	0.22387355	0.16514156	1.5964944	0.078816193	0.0030594879	1.1630891	0.21126682	0.084997622	1.5196819	0.039159753	-0.043391906	1.0956563	0.26320458	0.099696423	1.657729	0.43826992	-0.085670546	1.4706637	0.38755625	0.19930834	1.6331588	0.42950191	0.0315198	1.468122	0.36658447	0.063822564	1.5067441	0.80819252	-0.13942571	1.4476081	0.7498024	0.19724497	1.5647524	0.8451246	-0.083453134	1.5442845	0.81690745	0.16012543	1.3607839	0.90013799	0.037492236	1.4730404	1.3018158	-0.15689923	1.4935453	1.3109288	0.20588165	1.4008482	1.3430926	0.026760007	1.3826979	0.99751984	-0.19879141	1.4659904	0.98801949	0.2793336	1.4846321	0.78292702	-0.25785874	1.6844023	0.87251026	0.25171676
452	1.804	1.7207073	0.034133695	-0.058590435	1.1576151	0.086819674	0.1437623	1.5969845	0.066926678	-0.084240149	1.1378529	0.22491718	0.164297	1.5966055	0.07888288	0.0030731375	1.1767149	0.21244038	0.084318921	1.5196529	0.039272681	-0.043412821	1.1083936	0.26344458	0.098395822	1.6595809	0.43793645	-0.085701721	1.4830431	0.38954027	0.19954492	1.6347996	0.42917149	0.031467648	1.4806453	0.36877765	0.063958159	1.5124337	0.8094837	-0.13952674	1.4546144	0.75144215	0.19642691	1.5705854	0.84659176	-0.083599889	1.549733	0.81904141	0.16018906	1.366571	0.90180159	0.036966676	1.4792349	1.3038092	-0.15685434	1.4986803	1.3126081	0.20610202	1.4066253	1.3448131	0.026660912	1.3910539	0.99863277	-0.19923552	1.4693652	0.98958854	0.27829246	1.4958213	0.78511288	-0.25756827	1.6860432	0.87071424	0.25253008
453	1.808	1.7207171	0.034143433	-0.058623436	1.1733947	0.087846922	0.14425555	1.5970005	0.066948927	-0.084286924	1.1513792	0.22575133	0.16344445	1.5967394	0.07895894	0.0031121442	1.1904713	0.21331848	0.083644642	1.5195918	0.039419329	-0.043528817	1.1213242	0.26339219	0.097107233	1.6614085	0.43763997	-0.085604953	1.4953376	0.39170207	0.19974453	1.6362709	0.42892858	0.031520686	1.4931995	0.37104018	0.064059891	1.5181536	0.81073797	-0.13968717	1.4631367	0.75298242	0.19570632	1.5763265	0.84807573	-0.083733171	1.5550564	0.82115547	0.16032218	1.3723597	0.90355191	0.036443021	1.4854129	1.3058317	-0.15679505	1.5038126	1.3142778	0.20634002	1.412376	1.3465538	0.026574982	1.3994176	0.99977568	-0.19970186	1.4719272	0.99126423	0.27743248	1.5070875	0.78738378	-0.25722936	1.6875991	0.86900071	0.25336668
454	1.812	1.7207361	0.03414728	-0.058636611	1.189232	0.088679068	0.1448326	1.5970336	0.066966461	-0.084314662	1.1650306	0.22633601	0.16261914	1.5968982	0.079038629	0.0031717522	1.2043695	0.21388739	0.083034151	1.5194544	0.039614151	-0.043776185	1.1344089	0.26306479	0.095898927	1.6632102	0.43737122	-0.085392917	1.5075276	0.39403821	0.1999155	1.6375826	0.4287603	0.031668342	1.5057584	0.37337209	0.064147403	1.5238539	0.81196413	-0.1398799	1.4724916	0.75445158	0.19514	1.5819536	0.84956607	-0.083848402	1.5602924	0.82324128	0.16051068	1.378178	0.90535401	0.035937568	1.4915794	1.3078882	-0.15672021	1.5089505	1.3159221	0.20658423	1.4181067	1.3483095	0.02651451	1.4077921	1.0009402	-0.2001738	1.4740239	0.99303726	0.27670198	1.5184168	0.7897367	-0.25684299	1.6890656	0.86735349	0.25422696
